<svg width="456" height="93" viewBox="0 0 456 93" fill="none" xmlns="http://www.w3.org/2000/svg">
<path d="M418.938 78.5868V24.53H436.427V78.5868H418.938ZM399.632 59.8486V43.2682H455.62V59.8486H399.632Z" fill="#6C63FF"/>
<path d="M354.118 92.3282C347.379 92.3282 341.398 90.9654 336.174 88.2399C330.95 85.5143 326.824 81.7667 323.796 76.9969C320.843 72.1515 319.367 66.6247 319.367 60.4165C319.367 54.2083 320.843 48.7193 323.796 43.9496C326.824 39.1799 330.95 35.4701 336.174 32.8202C341.398 30.0947 347.379 28.7319 354.118 28.7319C360.856 28.7319 366.837 30.0947 372.061 32.8202C377.36 35.4701 381.487 39.1799 384.439 43.9496C387.392 48.7193 388.868 54.2083 388.868 60.4165C388.868 66.6247 387.392 72.1515 384.439 76.9969C381.487 81.7667 377.36 85.5143 372.061 88.2399C366.837 90.9654 360.856 92.3282 354.118 92.3282ZM354.118 75.1799C356.616 75.1799 358.812 74.6121 360.704 73.4764C362.673 72.3408 364.225 70.6752 365.36 68.4796C366.496 66.2083 367.064 63.5206 367.064 60.4165C367.064 57.3124 366.496 54.7004 365.36 52.5805C364.225 50.3849 362.673 48.7193 360.704 47.5837C358.812 46.448 356.616 45.8802 354.118 45.8802C351.695 45.8802 349.499 46.448 347.531 47.5837C345.638 48.7193 344.086 50.3849 342.875 52.5805C341.739 54.7004 341.171 57.3124 341.171 60.4165C341.171 63.5206 341.739 66.2083 342.875 68.4796C344.086 70.6752 345.638 72.3408 347.531 73.4764C349.499 74.6121 351.695 75.1799 354.118 75.1799Z" fill="#3885FE"/>
<path d="M287.628 91.3061V29.754H309.205V91.3061H287.628ZM298.417 22.9401C294.48 22.9401 291.3 21.8423 288.877 19.6467C286.455 17.4511 285.243 14.7256 285.243 11.47C285.243 8.21452 286.455 5.48896 288.877 3.29338C291.3 1.09779 294.48 0 298.417 0C302.354 0 305.533 1.05994 307.956 3.17981C310.379 5.22398 311.59 7.87382 311.59 11.1293C311.59 14.5363 310.379 17.3754 307.956 19.6467C305.609 21.8423 302.429 22.9401 298.417 22.9401Z" fill="#3885FE"/>
<path d="M235.134 92.3282C229.531 92.3282 224.421 91.0411 219.802 88.467C215.26 85.8171 211.626 82.1452 208.9 77.4512C206.175 72.6815 204.812 67.0032 204.812 60.4165C204.812 53.9054 206.175 48.3029 208.9 43.6089C211.626 38.8391 215.26 35.1672 219.802 32.5931C224.421 30.0189 229.531 28.7319 235.134 28.7319C240.433 28.7319 244.9 29.8675 248.534 32.1388C252.244 34.4101 255.045 37.8928 256.938 42.5868C258.831 47.2808 259.777 53.224 259.777 60.4165C259.777 67.7603 258.869 73.7792 257.052 78.4733C255.235 83.1673 252.509 86.6499 248.875 88.9212C245.241 91.1925 240.66 92.3282 235.134 92.3282ZM239.676 75.1799C242.099 75.1799 244.257 74.6121 246.149 73.4764C248.118 72.3408 249.67 70.6751 250.806 68.4796C251.941 66.2083 252.509 63.5206 252.509 60.4165C252.509 57.3124 251.941 54.7004 250.806 52.5805C249.67 50.3849 248.118 48.7193 246.149 47.5836C244.257 46.448 242.099 45.8802 239.676 45.8802C237.178 45.8802 234.944 46.448 232.976 47.5836C231.083 48.7193 229.569 50.3849 228.433 52.5805C227.298 54.7004 226.73 57.3124 226.73 60.4165C226.73 63.5206 227.298 66.2083 228.433 68.4796C229.569 70.6751 231.083 72.3408 232.976 73.4764C234.944 74.6121 237.178 75.1799 239.676 75.1799ZM253.19 91.3061V80.7446L253.304 60.4165L252.168 40.0884V7.041H273.746V91.3061H253.19Z" fill="#3885FE"/>
<path d="M158.759 91.3061V29.754H179.314V47.6972L176.248 42.5868C178.065 37.9685 181.017 34.5237 185.106 32.2524C189.194 29.9054 194.153 28.7319 199.983 28.7319V48.1515C198.998 48.0001 198.128 47.9244 197.371 47.9244C196.689 47.8486 195.932 47.8108 195.099 47.8108C190.708 47.8108 187.15 49.0221 184.424 51.4449C181.699 53.7919 180.336 57.6531 180.336 63.0285V91.3061H158.759Z" fill="#3885FE"/>
<path d="M125.038 91.3061V79.8361L123.561 76.9969V55.8739C123.561 52.4669 122.502 49.855 120.382 48.0379C118.337 46.1452 115.044 45.1988 110.502 45.1988C107.549 45.1988 104.558 45.6909 101.53 46.6751C98.5015 47.5837 95.9274 48.8707 93.8075 50.5363L86.5393 35.8865C90.022 33.6152 94.186 31.8739 99.0315 30.6625C103.953 29.3754 108.836 28.7319 113.681 28.7319C123.675 28.7319 131.397 31.0411 136.849 35.6594C142.375 40.202 145.139 47.3565 145.139 57.1231V91.3061H125.038ZM106.867 92.3282C101.946 92.3282 97.7823 91.4954 94.3753 89.8298C90.9684 88.1641 88.3564 85.8929 86.5393 83.0159C84.798 80.1389 83.9274 76.9212 83.9274 73.3629C83.9274 69.5774 84.8737 66.3218 86.7665 63.5963C88.7349 60.795 91.7255 58.6751 95.7381 57.2367C99.7507 55.7225 104.937 54.9654 111.296 54.9654H125.833V66.2083H114.249C110.767 66.2083 108.306 66.7761 106.867 67.9118C105.505 69.0474 104.823 70.5616 104.823 72.4543C104.823 74.3471 105.543 75.8613 106.981 76.9969C108.419 78.1326 110.388 78.7004 112.886 78.7004C115.233 78.7004 117.353 78.1326 119.246 76.9969C121.214 75.7856 122.653 73.9685 123.561 71.5458L126.514 79.4954C125.379 83.7351 123.145 86.9528 119.814 89.1484C116.558 91.2682 112.243 92.3282 106.867 92.3282Z" fill="#3885FE"/>
<path d="M44.4831 92.896C38.1992 92.896 32.3695 91.9118 26.9941 89.9433C21.6944 87.8992 17.0761 85.0222 13.1392 81.3124C9.27803 77.6026 6.24963 73.2493 4.05404 68.2524C1.85846 63.1799 0.760666 57.6152 0.760666 51.5584C0.760666 45.5016 1.85846 39.9748 4.05404 34.978C6.24963 29.9054 9.27803 25.5142 13.1392 21.8044C17.0761 18.0947 21.6944 15.2555 26.9941 13.2871C32.3695 11.2429 38.1992 10.2208 44.4831 10.2208C51.827 10.2208 58.3759 11.5079 64.1298 14.082C69.9595 16.6562 74.8049 20.3659 78.6661 25.2114L64.3569 38.1578C61.7828 35.1294 58.9437 32.8202 55.8396 31.2303C52.8112 29.6404 49.4043 28.8455 45.6188 28.8455C42.3632 28.8455 39.3727 29.3754 36.6471 30.4354C33.9216 31.4953 31.5746 33.0473 29.6061 35.0915C27.7134 37.06 26.1992 39.4448 25.0635 42.2461C24.0036 45.0474 23.4736 48.1515 23.4736 51.5584C23.4736 54.9654 24.0036 58.0695 25.0635 60.8707C26.1992 63.672 27.7134 66.0947 29.6061 68.1389C31.5746 70.1073 33.9216 71.6215 36.6471 72.6815C39.3727 73.7414 42.3632 74.2714 45.6188 74.2714C49.4043 74.2714 52.8112 73.4764 55.8396 71.8865C58.9437 70.2966 61.7828 67.9875 64.3569 64.9591L78.6661 77.9054C74.8049 82.6752 69.9595 86.3849 64.1298 89.0348C58.3759 91.6089 51.827 92.896 44.4831 92.896Z" fill="#3885FE"/>
</svg>
