<?xml version="1.0" encoding="utf-8"?>
<!-- Generator: Adobe Illustrator 28.1.0, SVG Export Plug-In . SVG Version: 6.00 Build 0)  -->
<svg version="1.1" id="Layer_1" xmlns="http://www.w3.org/2000/svg" xmlns:xlink="http://www.w3.org/1999/xlink" x="0px" y="0px"
	 viewBox="0 0 456 93" style="enable-background:new 0 0 456 93;" xml:space="preserve">
<style type="text/css">
	.st0{fill:#FFFFFF;}
</style>
<path class="st0" d="M418.9,78.6V24.5h17.5v54.1H418.9z M399.6,59.8V43.3h56v16.6H399.6z M354.1,92.3c-6.7,0-12.7-1.4-17.9-4.1
	c-5.2-2.7-9.4-6.5-12.4-11.2c-3-4.8-4.4-10.4-4.4-16.6s1.5-11.7,4.4-16.5c3-4.8,7.2-8.5,12.4-11.1c5.2-2.7,11.2-4.1,17.9-4.1
	c6.7,0,12.7,1.4,17.9,4.1c5.3,2.6,9.4,6.4,12.4,11.1c3,4.8,4.4,10.3,4.4,16.5s-1.5,11.7-4.4,16.6c-3,4.8-7.1,8.5-12.4,11.2
	C366.8,91,360.9,92.3,354.1,92.3z M354.1,75.2c2.5,0,4.7-0.6,6.6-1.7c2-1.1,3.5-2.8,4.7-5c1.1-2.3,1.7-5,1.7-8.1s-0.6-5.7-1.7-7.8
	c-1.1-2.2-2.7-3.9-4.7-5c-1.9-1.1-4.1-1.7-6.6-1.7c-2.4,0-4.6,0.6-6.6,1.7c-1.9,1.1-3.4,2.8-4.7,5c-1.1,2.1-1.7,4.7-1.7,7.8
	s0.6,5.8,1.7,8.1c1.2,2.2,2.8,3.9,4.7,5C349.5,74.6,351.7,75.2,354.1,75.2z M287.6,91.3V29.8h21.6v61.6H287.6z M298.4,22.9
	c-3.9,0-7.1-1.1-9.5-3.3c-2.4-2.2-3.6-4.9-3.6-8.2c0-3.3,1.2-6,3.6-8.2c2.4-2.2,5.6-3.3,9.5-3.3c3.9,0,7.1,1.1,9.5,3.2
	c2.4,2,3.6,4.7,3.6,7.9c0,3.4-1.2,6.2-3.6,8.5C305.6,21.8,302.4,22.9,298.4,22.9z M235.1,92.3c-5.6,0-10.7-1.3-15.3-3.9
	c-4.5-2.6-8.2-6.3-10.9-11c-2.7-4.8-4.1-10.4-4.1-17c0-6.5,1.4-12.1,4.1-16.8c2.7-4.8,6.4-8.4,10.9-11c4.6-2.6,9.7-3.9,15.3-3.9
	c5.3,0,9.8,1.1,13.4,3.4c3.7,2.3,6.5,5.8,8.4,10.4c1.9,4.7,2.8,10.6,2.8,17.8c0,7.3-0.9,13.4-2.7,18.1c-1.8,4.7-4.5,8.2-8.2,10.4
	C245.2,91.2,240.7,92.3,235.1,92.3z M239.7,75.2c2.4,0,4.6-0.6,6.5-1.7c2-1.1,3.5-2.8,4.7-5c1.1-2.3,1.7-5,1.7-8.1s-0.6-5.7-1.7-7.8
	c-1.1-2.2-2.7-3.9-4.7-5c-1.9-1.1-4.1-1.7-6.5-1.7c-2.5,0-4.7,0.6-6.7,1.7c-1.9,1.1-3.4,2.8-4.5,5c-1.1,2.1-1.7,4.7-1.7,7.8
	s0.6,5.8,1.7,8.1c1.1,2.2,2.6,3.9,4.5,5C234.9,74.6,237.2,75.2,239.7,75.2z M253.2,91.3V80.7l0.1-20.3l-1.1-20.3V7h21.6v84.3H253.2z
	 M158.8,91.3V29.8h20.6v17.9l-3.1-5.1c1.8-4.6,4.8-8.1,8.9-10.3c4.1-2.3,9-3.5,14.9-3.5v19.4c-1-0.2-1.9-0.2-2.6-0.2
	c-0.7-0.1-1.4-0.1-2.3-0.1c-4.4,0-7.9,1.2-10.7,3.6c-2.7,2.3-4.1,6.2-4.1,11.6v28.3H158.8z M125,91.3V79.8l-1.5-2.8V55.9
	c0-3.4-1.1-6-3.2-7.8c-2-1.9-5.3-2.8-9.9-2.8c-3,0-5.9,0.5-9,1.5c-3,0.9-5.6,2.2-7.7,3.9l-7.3-14.6c3.5-2.3,7.6-4,12.5-5.2
	c4.9-1.3,9.8-1.9,14.6-1.9c10,0,17.7,2.3,23.2,6.9c5.5,4.5,8.3,11.7,8.3,21.5v34.2H125z M106.9,92.3c-4.9,0-9.1-0.8-12.5-2.5
	c-3.4-1.7-6-3.9-7.8-6.8c-1.7-2.9-2.6-6.1-2.6-9.7c0-3.8,0.9-7,2.8-9.8c2-2.8,5-4.9,9-6.4c4-1.5,9.2-2.3,15.6-2.3h14.5v11.2h-11.6
	c-3.5,0-5.9,0.6-7.4,1.7c-1.4,1.1-2,2.6-2,4.5c0,1.9,0.7,3.4,2.2,4.5c1.4,1.1,3.4,1.7,5.9,1.7c2.3,0,4.5-0.6,6.4-1.7
	c2-1.2,3.4-3,4.3-5.5l3,7.9c-1.1,4.2-3.4,7.5-6.7,9.7C116.6,91.3,112.2,92.3,106.9,92.3z M44.5,92.9c-6.3,0-12.1-1-17.5-3
	c-5.3-2-9.9-4.9-13.9-8.6c-3.9-3.7-6.9-8.1-9.1-13.1c-2.2-5.1-3.3-10.6-3.3-16.7S1.9,40,4.1,35c2.2-5.1,5.2-9.5,9.1-13.2
	c3.9-3.7,8.6-6.5,13.9-8.5c5.4-2,11.2-3.1,17.5-3.1c7.3,0,13.9,1.3,19.6,3.9c5.8,2.6,10.7,6.3,14.5,11.1L64.4,38.2
	c-2.6-3-5.4-5.3-8.5-6.9c-3-1.6-6.4-2.4-10.2-2.4c-3.3,0-6.2,0.5-9,1.6c-2.7,1.1-5.1,2.6-7,4.7c-1.9,2-3.4,4.4-4.5,7.2
	c-1.1,2.8-1.6,5.9-1.6,9.3c0,3.4,0.5,6.5,1.6,9.3c1.1,2.8,2.6,5.2,4.5,7.3c2,2,4.3,3.5,7,4.5c2.7,1.1,5.7,1.6,9,1.6
	c3.8,0,7.2-0.8,10.2-2.4c3.1-1.6,5.9-3.9,8.5-6.9l14.3,12.9C74.8,82.7,70,86.4,64.1,89C58.4,91.6,51.8,92.9,44.5,92.9z"/>
</svg>
