<?xml version="1.0" encoding="UTF-8"?>
<svg version="1.1" xmlns="http://www.w3.org/2000/svg" width="256" height="212">
<path d="M0 0 C3.54996634 2.78473859 6.79489697 5.8313416 10 9 C10.65709961 9.6487207 11.31419922 10.29744141 11.99121094 10.96582031 C16.68826893 15.61676707 21.35418038 20.29790414 26 25 C29.37051257 22.2649891 32.48215213 19.6703365 35.25 16.3125 C46.26430007 3.51079159 58.9518779 -7.46895452 76 -11 C103.81018924 -12.80553302 103.81018924 -12.80553302 116 -7 C116.93070313 -6.57589844 117.86140625 -6.15179687 118.8203125 -5.71484375 C136.40943665 3.07971833 146.49564219 16.94340612 153.13671875 35.109375 C156.95506483 52.31784873 154.77429694 70.44216996 145.9375 85.625 C141.33477883 92.3589812 135.6793687 98.17675642 130 104 C129.10410156 104.92425781 128.20820313 105.84851563 127.28515625 106.80078125 C123.7424784 110.39804582 120.16498743 113.87238324 116.33538818 117.16241455 C112.07685533 120.8812321 108.06839742 124.80391595 104.08691406 128.81542969 C102.9682621 129.93627205 102.9682621 129.93627205 101.82701111 131.07975769 C100.22232961 132.68821946 98.61880342 134.29783452 97.01633453 135.90850067 C94.47981978 138.45786155 91.94012185 141.00401296 89.39959717 143.54937744 C84.01357835 148.94677708 78.63151123 154.34810652 73.25 159.75 C66.99782237 166.02579014 60.74402925 172.29995256 54.48601532 178.5699234 C51.98457508 181.07784345 49.48616561 183.58875633 46.987854 186.09979248 C45.45721972 187.63405858 43.92644527 189.16818486 42.39550781 190.70214844 C41.70245041 191.40037216 41.00939301 192.09859589 40.29533386 192.81797791 C39.65350662 193.45987564 39.01167938 194.10177338 38.35040283 194.76312256 C37.79665607 195.31908993 37.24290932 195.8750573 36.67238235 196.44787216 C33.45869599 199.43047483 30.9579063 201.50350781 26.5 201.875 C21.45247547 201.59700576 19.27760899 199.90866777 15.66894531 196.45410156 C15.15808002 195.96913334 14.64721474 195.48416512 14.12086868 194.98450089 C12.39878106 193.33789225 10.69757359 191.67185831 9 190 C8.39691513 189.40819443 7.79383026 188.81638885 7.17247009 188.20664978 C3.09296767 184.19263117 -0.95275413 180.14571764 -4.98795319 176.08721161 C-7.25698443 173.80520764 -9.52930808 171.52652583 -11.8024292 169.24859619 C-16.62113767 164.41856878 -21.43586325 159.58458354 -26.25 154.75 C-31.84930398 149.12699024 -37.45028535 143.50567194 -43.05550385 137.88855743 C-45.28202317 135.65560993 -47.50548412 133.41964849 -49.7288208 131.18353271 C-51.10454618 129.80417221 -52.48041362 128.42495337 -53.85644531 127.04589844 C-54.46338226 126.43379517 -55.07031921 125.82169189 -55.69564819 125.19104004 C-59.41781006 121.46842782 -63.26761127 117.94737568 -67.25607014 114.51132774 C-81.45657142 102.20486289 -95.79550909 88.55648844 -101 70 C-101.17362061 69.41742432 -101.34724121 68.83484863 -101.52612305 68.23461914 C-102.61359543 63.10652295 -102.2720534 57.72030813 -102.3125 52.5 C-102.34150391 51.283125 -102.37050781 50.06625 -102.40039062 48.8125 C-102.51173311 32.7791826 -96.27392989 18.82646507 -85.28515625 7.16015625 C-62.00526847 -14.84630177 -26.5297922 -18.39791415 0 0 Z " fill="#FEFEFE" transform="translate(102,11)"/>
<path d="M0 0 C1.670625 0.061875 1.670625 0.061875 3.375 0.125 C7.27629624 7.53415165 10.45838813 15.10127007 13.45703125 22.9140625 C13.91607346 24.09849945 14.37511566 25.2829364 14.84806824 26.50326538 C16.05326132 29.61551266 17.25424449 32.72931462 18.453125 35.84399414 C19.68326201 39.03670678 20.91903344 42.22723686 22.15429688 45.41796875 C24.56632883 51.65167277 26.97282354 57.88749198 29.375 64.125 C32.05849683 58.85326396 34.70223378 53.61694938 36.875 48.109375 C37.2875 47.08585937 37.7 46.06234375 38.125 45.0078125 C38.96371427 42.90578486 39.79698431 40.8015774 40.625 38.6953125 C42.92401268 33.01962495 45.10696312 28.54546677 49.375 24.125 C52.07272283 24.20434479 53.84065913 24.64381345 55.8671875 26.46875 C59.14957375 30.21033018 61.80555592 34.22175988 64.296875 38.5234375 C65.2953123 40.29025454 65.2953123 40.29025454 67.375 41.125 C70.35904535 41.36301839 73.34192704 41.50728972 76.33203125 41.6484375 C79.65184528 42.16835703 81.63230444 43.22894059 84.375 45.125 C84.11938677 47.4681213 83.78229228 49.80343403 83.375 52.125 C79.75572473 53.93463763 75.61172731 53.52335539 71.625 53.625 C70.73039062 53.67914063 69.83578125 53.73328125 68.9140625 53.7890625 C62.39891844 53.9235935 62.39891844 53.9235935 59.46679688 51.63671875 C57.93298185 49.86621538 56.6298981 48.10079701 55.375 46.125 C54.715 45.135 54.055 44.145 53.375 43.125 C52.715 43.125 52.055 43.125 51.375 43.125 C50.93631592 44.18412598 50.49763184 45.24325195 50.0456543 46.33447266 C48.40966473 50.28265061 46.77080736 54.22963287 45.13110352 58.17626953 C44.42329517 59.88102521 43.71625361 61.58609949 43.01000977 63.29150391 C41.99178726 65.74987621 40.97076668 68.20707048 39.94921875 70.6640625 C39.4802845 71.79879501 39.4802845 71.79879501 39.00187683 72.95645142 C34.33026201 84.16973799 34.33026201 84.16973799 32.375 86.125 C29.5 86.5 29.5 86.5 26.375 86.125 C23.00707695 81.70438715 21.3050433 76.17486779 19.3203125 71.03125 C18.9368869 70.04813843 18.5534613 69.06502686 18.15841675 68.05212402 C16.93468145 64.91138891 15.71728269 61.76824085 14.5 58.625 C13.68921277 56.5415068 12.87801888 54.45817181 12.06640625 52.375 C11.27590837 50.34380187 10.4855416 48.31255271 9.6953125 46.28125 C9.31296448 45.29874268 8.93061646 44.31623535 8.53668213 43.30395508 C6.92050526 39.14229744 5.31188982 34.97935407 3.76074219 30.79296875 C3.32149414 29.61347656 2.88224609 28.43398437 2.4296875 27.21875 C2.07116699 26.23583984 1.71264648 25.25292969 1.34326172 24.24023438 C0.56667033 21.95953089 0.56667033 21.95953089 -1.625 21.125 C-2.03339111 21.98778564 -2.44178223 22.85057129 -2.86254883 23.73950195 C-4.38247946 26.94620178 -5.91079594 30.14884441 -7.44165039 33.3503418 C-8.10246753 34.73531991 -8.76101944 36.12138124 -9.41723633 37.50854492 C-10.36203014 39.50469899 -11.31495896 41.49678837 -12.26953125 43.48828125 C-12.5602803 44.10713699 -12.85102936 44.72599274 -13.15058899 45.36360168 C-16.06001182 51.39278535 -16.06001182 51.39278535 -18.625 53.125 C-21.21289063 53.51318359 -21.21289063 53.51318359 -24.28125 53.5234375 C-25.38597656 53.52730469 -26.49070312 53.53117187 -27.62890625 53.53515625 C-28.78261719 53.52355469 -29.93632813 53.51195312 -31.125 53.5 C-32.27871094 53.51160156 -33.43242188 53.52320313 -34.62109375 53.53515625 C-35.72582031 53.53128906 -36.83054687 53.52742188 -37.96875 53.5234375 C-38.98130859 53.52005371 -39.99386719 53.51666992 -41.03710938 53.51318359 C-43.625 53.125 -43.625 53.125 -45.45117188 51.75634766 C-46.625 50.125 -46.625 50.125 -47.0625 47.625 C-46.625 45.125 -46.625 45.125 -45.17578125 43.51171875 C-41.35701274 41.43566542 -37.65989118 41.55466499 -33.375 41.4375 C-32.53453125 41.40333984 -31.6940625 41.36917969 -30.828125 41.33398438 C-28.76087796 41.25176432 -26.69296126 41.18669843 -24.625 41.125 C-20.90996072 33.79072475 -17.23663583 26.44120511 -13.71484375 19.01171875 C-13.22346924 17.97539307 -12.73209473 16.93906738 -12.22583008 15.87133789 C-11.24924716 13.80589329 -10.27636814 11.73869298 -9.30737305 9.66967773 C-8.63315308 8.24377319 -8.63315308 8.24377319 -7.9453125 6.7890625 C-7.54586426 5.93779785 -7.14641602 5.0865332 -6.73486328 4.20947266 C-4.82046902 0.6139825 -4.19489292 0.14465148 0 0 Z " fill="#45568C" transform="translate(105.625,57.875)"/>
</svg>
