<svg width="270" height="38" viewBox="0 0 270 38" fill="none" xmlns="http://www.w3.org/2000/svg">
<path d="M0.160511 37V0.636363H14.5071C17.2533 0.636363 19.5971 1.1276 21.5384 2.11008C23.4915 3.08073 24.977 4.45975 25.995 6.24716C27.0249 8.02273 27.5398 10.112 27.5398 12.5149C27.5398 14.9297 27.0189 17.0071 25.9773 18.7472C24.9356 20.4754 23.4264 21.8011 21.4496 22.7244C19.4846 23.6477 17.1054 24.1094 14.3118 24.1094H4.70597V17.9304H13.0689C14.5367 17.9304 15.7559 17.7292 16.7266 17.3267C17.6972 16.9242 18.4193 16.3205 18.8928 15.5156C19.3781 14.7107 19.6207 13.7105 19.6207 12.5149C19.6207 11.3075 19.3781 10.2895 18.8928 9.46094C18.4193 8.63234 17.6913 8.00497 16.7088 7.57883C15.7382 7.14086 14.513 6.92188 13.0334 6.92188H7.84872V37H0.160511ZM19.7983 20.4517L28.8359 37H20.3487L11.5064 20.4517H19.7983ZM32.973 37V0.636363H57.4759V6.97514H40.6612V15.6399H56.2152V21.9787H40.6612V30.6612H57.5469V37H32.973ZM110.565 13.3672H102.788C102.646 12.361 102.356 11.4673 101.918 10.6861C101.48 9.89299 100.918 9.21828 100.232 8.66193C99.545 8.10559 98.7519 7.67945 97.8523 7.38352C96.9645 7.08759 95.9998 6.93963 94.9581 6.93963C93.076 6.93963 91.4366 7.4072 90.0398 8.34233C88.643 9.26562 87.5599 10.6151 86.7905 12.3906C86.0211 14.1544 85.6364 16.2969 85.6364 18.8182C85.6364 21.4105 86.0211 23.5885 86.7905 25.3523C87.5717 27.116 88.6607 28.4477 90.0575 29.3473C91.4543 30.2469 93.0701 30.6967 94.9048 30.6967C95.9347 30.6967 96.8875 30.5606 97.7635 30.2884C98.6513 30.0161 99.4384 29.6196 100.125 29.0987C100.812 28.5661 101.38 27.9209 101.83 27.1634C102.291 26.4058 102.611 25.5417 102.788 24.571L110.565 24.6065C110.364 26.2756 109.861 27.8854 109.056 29.4361C108.263 30.9749 107.192 32.3539 105.842 33.5732C104.505 34.7805 102.907 35.7393 101.048 36.4496C99.2017 37.148 97.1125 37.4972 94.7805 37.4972C91.5372 37.4972 88.6371 36.7633 86.0803 35.2955C83.5353 33.8277 81.523 31.7029 80.0433 28.9212C78.5755 26.1394 77.8416 22.7718 77.8416 18.8182C77.8416 14.8527 78.5874 11.4792 80.0788 8.69744C81.5703 5.91572 83.5945 3.79687 86.1513 2.34091C88.7081 0.873105 91.5845 0.139203 94.7805 0.139203C96.8875 0.139203 98.8407 0.435131 100.64 1.02699C102.451 1.61884 104.055 2.48295 105.452 3.61932C106.848 4.74384 107.985 6.12287 108.861 7.75639C109.749 9.38991 110.317 11.2602 110.565 13.3672ZM121.663 37H113.424L125.977 0.636363H135.885L148.42 37H140.182L131.073 8.94602H130.789L121.663 37ZM121.148 22.7067H140.608V28.7081H121.148V22.7067ZM152.797 37V0.636363H167.144C169.89 0.636363 172.234 1.1276 174.175 2.11008C176.128 3.08073 177.614 4.45975 178.632 6.24716C179.662 8.02273 180.176 10.112 180.176 12.5149C180.176 14.9297 179.656 17.0071 178.614 18.7472C177.572 20.4754 176.063 21.8011 174.086 22.7244C172.121 23.6477 169.742 24.1094 166.949 24.1094H157.343V17.9304H165.706C167.173 17.9304 168.393 17.7292 169.363 17.3267C170.334 16.9242 171.056 16.3205 171.529 15.5156C172.015 14.7107 172.257 13.7105 172.257 12.5149C172.257 11.3075 172.015 10.2895 171.529 9.46094C171.056 8.63234 170.328 8.00497 169.346 7.57883C168.375 7.14086 167.15 6.92188 165.67 6.92188H160.485V37H152.797ZM172.435 20.4517L181.473 37H172.985L164.143 20.4517H172.435ZM198.5 37H185.61V0.636363H198.607C202.265 0.636363 205.413 1.36435 208.053 2.82031C210.693 4.26444 212.723 6.34185 214.143 9.05256C215.575 11.7633 216.292 15.0066 216.292 18.7827C216.292 22.5705 215.575 25.8258 214.143 28.5483C212.723 31.2708 210.681 33.3601 208.017 34.8161C205.366 36.272 202.194 37 198.5 37ZM193.298 30.4126H198.181C200.453 30.4126 202.365 30.0102 203.916 29.2053C205.478 28.3885 206.65 27.1278 207.431 25.4233C208.225 23.7069 208.621 21.4934 208.621 18.7827C208.621 16.0956 208.225 13.8999 207.431 12.1953C206.65 10.4908 205.484 9.23603 203.934 8.43111C202.383 7.62618 200.471 7.22372 198.199 7.22372H193.298V30.4126ZM229.675 0.636363V37H221.987V0.636363H229.675ZM269.417 18.8182C269.417 22.7836 268.665 26.1572 267.162 28.9389C265.67 31.7206 263.634 33.8454 261.054 35.3132C258.485 36.7692 255.597 37.4972 252.389 37.4972C249.157 37.4972 246.257 36.7633 243.689 35.2955C241.12 33.8277 239.09 31.7029 237.598 28.9212C236.107 26.1394 235.361 22.7718 235.361 18.8182C235.361 14.8527 236.107 11.4792 237.598 8.69744C239.09 5.91572 241.12 3.79687 243.689 2.34091C246.257 0.873105 249.157 0.139203 252.389 0.139203C255.597 0.139203 258.485 0.873105 261.054 2.34091C263.634 3.79687 265.67 5.91572 267.162 8.69744C268.665 11.4792 269.417 14.8527 269.417 18.8182ZM261.622 18.8182C261.622 16.2495 261.237 14.0833 260.468 12.3196C259.71 10.5559 258.639 9.21828 257.254 8.30682C255.869 7.39536 254.247 6.93963 252.389 6.93963C250.53 6.93963 248.909 7.39536 247.524 8.30682C246.139 9.21828 245.062 10.5559 244.292 12.3196C243.535 14.0833 243.156 16.2495 243.156 18.8182C243.156 21.3868 243.535 23.553 244.292 25.3168C245.062 27.0805 246.139 28.4181 247.524 29.3295C248.909 30.241 250.53 30.6967 252.389 30.6967C254.247 30.6967 255.869 30.241 257.254 29.3295C258.639 28.4181 259.71 27.0805 260.468 25.3168C261.237 23.553 261.622 21.3868 261.622 18.8182Z" fill="white"/>
<path d="M67.8674 37.4616C66.6955 37.4616 65.6893 37.0473 64.8489 36.2188C64.0203 35.3783 63.606 34.3722 63.606 33.2003C63.606 32.0402 64.0203 31.0459 64.8489 30.2173C65.6893 29.3887 66.6955 28.9744 67.8674 28.9744C69.0037 28.9744 69.998 29.3887 70.8503 30.2173C71.7026 31.0459 72.1287 32.0402 72.1287 33.2003C72.1287 33.9815 71.9275 34.6977 71.525 35.3487C71.1344 35.9879 70.6195 36.5028 69.9803 36.8935C69.3411 37.2723 68.6368 37.4616 67.8674 37.4616Z" fill="#FFB30F"/>
</svg>
